<?xml version="1.0" encoding="iso-8859-1"?>
<!-- Generator: Adobe Illustrator 19.0.0, SVG Export Plug-In . SVG Version: 6.00 Build 0)  -->
<svg version="1.1" id="Capa_1" xmlns="http://www.w3.org/2000/svg" xmlns:xlink="http://www.w3.org/1999/xlink" x="0px" y="0px"
	 viewBox="0 0 415.457 415.457" style="enable-background:new 0 0 415.457 415.457;" xml:space="preserve">
<g>
	<g>
		<path d="M406.411,365.247c-4.621-17.58-20.509-29.839-38.686-29.85c-18.372-0.192-34.44,12.336-38.734,30.2h-11.266
			c-11.028,0-20-9.376-20-20.4v-80.6H321.9c42.83,0.049,77.591-34.632,77.64-77.462c0.031-27.022-14.006-52.112-37.05-66.224
			c0.253-2.964,0.433-5.954,0.433-9.2C362.943,50.035,312.961,0.02,251.286,0c-21.739-0.007-43.007,6.331-61.196,18.236
			c-15.485,10.191-28.228,24.032-37.106,40.305c-3.525-0.376-7.067-0.564-10.611-0.563c-19.599-0.029-38.655,6.437-54.189,18.388
			c-14.045,10.778-24.721,25.342-30.771,41.98c-6.897,3.629-13.213,8.267-18.74,13.761c-30.321,30.28-30.354,79.406-0.075,109.727
			c14.566,14.586,34.338,22.776,54.952,22.763h24.175v80.6c0,11.028-8.972,20.4-20,20.4H86.459
			c-4.294-17.864-20.362-30.392-38.734-30.2C25.619,335.41,7.709,353.34,7.721,375.446c0.013,22.106,17.943,40.016,40.049,40.003
			c18.179-0.01,34.068-12.27,38.689-29.852h11.266c22.056,0,40-18.348,40-40.4v-80.6h60v71.862
			c-21.39,5.523-34.253,27.34-28.73,48.73c5.523,21.39,27.34,34.253,48.73,28.73s34.253-27.34,28.73-48.73
			c-3.638-14.089-14.64-25.092-28.73-28.73v-71.862h60v80.6c0,22.056,17.944,40.4,40,40.4h11.266
			c5.62,21.379,27.506,34.155,48.885,28.535C399.255,408.513,412.03,386.626,406.411,365.247z M47.725,395.197
			c-11.046,0-20-8.954-20-20c0-11.046,8.954-20,20-20s20,8.954,20,20C67.712,386.237,58.765,395.184,47.725,395.197z
			 M227.725,375.197c0,11.046-8.954,20-20,20s-20-8.954-20-20c0-11.046,8.954-20,20-20
			C218.765,355.21,227.712,364.157,227.725,375.197z M93.55,244.597c-31.816-0.03-57.603-25.81-57.64-57.626
			c-0.031-15.29,6.057-29.956,16.906-40.729c4.935-4.874,10.685-8.846,16.991-11.736l4.023-1.876l1.306-4.243
			c9.133-29.68,36.782-50.409,67.237-50.409c4.803-0.019,9.597,0.427,14.314,1.332l7.721,1.544l3.317-7.143
			c7.29-15.776,18.844-29.202,33.357-38.762c42.376-27.708,99.189-15.817,126.897,26.559c9.759,14.926,14.954,32.375,14.946,50.208
			c-0.065,4.17-0.345,8.334-0.839,12.475l-0.815,8.135l6.164,3.083c28.502,14.105,40.172,48.645,26.067,77.147
			c-9.711,19.622-29.709,32.039-51.602,32.041H93.55z M367.725,395.197c-11.046,0-20-8.954-20-20c0-11.046,8.954-20,20-20
			c11.046,0,20,8.954,20,20C387.712,386.237,378.765,395.184,367.725,395.197z"/>
	</g>
</g>
<g>
</g>
<g>
</g>
<g>
</g>
<g>
</g>
<g>
</g>
<g>
</g>
<g>
</g>
<g>
</g>
<g>
</g>
<g>
</g>
<g>
</g>
<g>
</g>
<g>
</g>
<g>
</g>
<g>
</g>
</svg>
